<svg width="102" height="46" viewBox="0 0 130 46" fill="none" xmlns="http://www.w3.org/2000/svg">
    <path d="M0.5 14C0.5 6.54416 6.54416 0.5 14 0.5H54.4546V45.5H14C6.54416 45.5 0.5 39.4558 0.5 32V14Z"
          fill="#67FFD2"/>
    <g filter="url(#filter0_i_1_333)">
        <path d="M20 13.2535H27.082C28.5638 13.2535 29.8359 13.4769 30.8978 13.923C31.9597 14.3691 32.7765 15.0294 33.3478 15.9045C33.919 16.7791 34.2046 17.8547 34.2046 19.1308C34.2046 20.1396 34.0258 21.0141 33.6694 21.755C33.3118 22.4959 32.808 23.1162 32.1562 23.6161C31.5136 24.1159 30.755 24.5083 29.8804 24.7939L28.7289 25.3829H22.4768L22.45 22.4776H27.1226C27.8812 22.4776 28.5101 22.3439 29.0099 22.076C29.5097 21.8087 29.8844 21.438 30.1346 20.965C30.3934 20.492 30.5231 19.9522 30.5231 19.345C30.5231 18.6933 30.398 18.1312 30.1478 17.6582C29.8982 17.1761 29.5189 16.8059 29.0099 16.5472C28.5015 16.2884 27.8589 16.1587 27.082 16.1587H23.6815V32.7465H20V13.2535ZM31.0046 32.7465L26.4931 24.0176L30.3888 24.0039L34.9546 32.5591V32.7465H31.0046Z"
              fill="#072D22"/>
    </g>
    <path d="M0.5 14C0.5 6.54416 6.54416 0.5 14 0.5H54.4546V45.5H14C6.54416 45.5 0.5 39.4558 0.5 32V14Z"
          stroke="black"/>
    <mask id="path-3-inside-1_1_333" fill="white">
        <path d="M47 0H82C89.732 0 96 6.26801 96 14V32C96 39.732 89.732 46 82 46H47V0Z"/>
    </mask>
    <path d="M47 0H82C89.732 0 96 6.26801 96 14V32C96 39.732 89.732 46 82 46H47V0Z" fill="#5AE8BE"
          fill-opacity="0.6"/>
    <path d="M75.2096 24.0647H67.7909V31.7111H64.5V14.2889H67.7909V21.4804H75.2096V14.2889H78.5V31.7111H75.2096V24.0647Z"
          fill="#041812"/>
    <path d="M47 0H96H47ZM96 46H47H96ZM46 46V0H48V46H46ZM96 0V46V0Z" fill="#0B4F3C"
          mask="url(#path-3-inside-1_1_333)"/>
    <path d="M130 20.16C130 17.65 128.024 15.6153 125.587 15.6153C124.107 15.6153 122.801 16.3674 122 17.5167C121.199 16.3674 119.893 15.6153 118.414 15.6153C115.976 15.6153 114 17.6493 114 20.16C114 20.5153 114.044 20.86 114.119 21.192C114.732 25.1127 118.965 29.2487 122 30.3847C125.034 29.2487 129.268 25.1127 129.88 21.1927C129.956 20.8607 130 20.516 130 20.16Z"
          fill="#1CDEA7"/>
    <defs>
        <filter id="filter0_i_1_333" x="20" y="13.2535" width="14.9546" height="23.493"
                filterUnits="userSpaceOnUse" color-interpolation-filters="sRGB">
            <feFlood flood-opacity="0" result="BackgroundImageFix"/>
            <feBlend mode="normal" in="SourceGraphic" in2="BackgroundImageFix" result="shape"/>
            <feColorMatrix in="SourceAlpha" type="matrix"
                           values="0 0 0 0 0 0 0 0 0 0 0 0 0 0 0 0 0 0 127 0" result="hardAlpha"/>
            <feOffset dy="4"/>
            <feGaussianBlur stdDeviation="22"/>
            <feComposite in2="hardAlpha" operator="arithmetic" k2="-1" k3="1"/>
            <feColorMatrix type="matrix" values="0 0 0 0 0 0 0 0 0 0 0 0 0 0 0 0 0 0 0.5 0"/>
            <feBlend mode="normal" in2="shape" result="effect1_innerShadow_1_333"/>
        </filter>
    </defs>
</svg>