<svg width="12" height="12" viewBox="0 0 12 12" fill="none" xmlns="http://www.w3.org/2000/svg">
<path fill-rule="evenodd" clip-rule="evenodd" d="M2.35991 1.98501C2.43023 1.91478 2.52554 1.87534 2.62491 1.87534C2.72429 1.87534 2.8196 1.91478 2.88991 1.98501L6.63991 5.73501C6.71014 5.80532 6.74958 5.90063 6.74958 6.00001C6.74958 6.09938 6.71014 6.19469 6.63991 6.26501L2.88991 10.015C2.81883 10.0812 2.7248 10.1173 2.62765 10.1156C2.5305 10.1139 2.43781 10.0745 2.3691 10.0058C2.3004 9.93711 2.26104 9.84442 2.25933 9.74727C2.25761 9.65012 2.29367 9.55609 2.35991 9.48501L5.84491 6.00001L2.35991 2.51501C2.28969 2.44469 2.25024 2.34938 2.25024 2.25001C2.25024 2.15063 2.28969 2.05532 2.35991 1.98501ZM5.35991 1.98501C5.43023 1.91478 5.52554 1.87534 5.62491 1.87534C5.72429 1.87534 5.8196 1.91478 5.88991 1.98501L9.63991 5.73501C9.71014 5.80532 9.74958 5.90063 9.74958 6.00001C9.74958 6.09938 9.71014 6.19469 9.63991 6.26501L5.88991 10.015C5.85558 10.0518 5.81418 10.0814 5.76818 10.1019C5.72218 10.1224 5.67253 10.1334 5.62218 10.1343C5.57182 10.1352 5.52181 10.1259 5.47512 10.1071C5.42842 10.0882 5.386 10.0601 5.3504 10.0245C5.31479 9.98892 5.28671 9.9465 5.26785 9.8998C5.24899 9.85311 5.23973 9.8031 5.24062 9.75274C5.24151 9.70239 5.25253 9.65274 5.27302 9.60674C5.29352 9.56074 5.32307 9.51934 5.35991 9.48501L8.84491 6.00001L5.35991 2.51501C5.28969 2.44469 5.25024 2.34938 5.25024 2.25001C5.25024 2.15063 5.28969 2.05532 5.35991 1.98501Z" fill="white"/>
</svg>
