<svg width="12" height="12" viewBox="0 0 12 12" fill="none" xmlns="http://www.w3.org/2000/svg">
<path fill-rule="evenodd" clip-rule="evenodd" d="M4.765 10.765C4.69469 10.8352 4.59938 10.8747 4.5 10.8747C4.40062 10.8747 4.30531 10.8352 4.235 10.765L1.235 7.76499C1.16477 7.69468 1.12533 7.59937 1.12533 7.49999C1.12533 7.40062 1.16477 7.30531 1.235 7.23499L4.235 4.23499C4.26933 4.19815 4.31073 4.1686 4.35673 4.1481C4.40273 4.12761 4.45239 4.11659 4.50274 4.1157C4.55309 4.11481 4.6031 4.12407 4.6498 4.14293C4.69649 4.16179 4.73891 4.18987 4.77452 4.22548C4.81013 4.26108 4.8382 4.3035 4.85706 4.3502C4.87592 4.39689 4.88518 4.4469 4.8843 4.49726C4.88341 4.54761 4.87239 4.59726 4.85189 4.64326C4.83139 4.68926 4.80184 4.73066 4.765 4.76499L2.405 7.12499H7.5C7.84472 7.12499 8.18606 7.0571 8.50454 6.92518C8.82302 6.79326 9.1124 6.5999 9.35616 6.35615C9.59991 6.1124 9.79327 5.82302 9.92518 5.50454C10.0571 5.18606 10.125 4.84471 10.125 4.49999C10.125 4.15527 10.0571 3.81393 9.92518 3.49545C9.79327 3.17697 9.59991 2.88759 9.35616 2.64384C9.1124 2.40009 8.82302 2.20673 8.50454 2.07481C8.18606 1.94289 7.84472 1.87499 7.5 1.87499H6C5.90054 1.87499 5.80516 1.83549 5.73484 1.76516C5.66451 1.69483 5.625 1.59945 5.625 1.49999C5.625 1.40054 5.66451 1.30515 5.73484 1.23483C5.80516 1.1645 5.90054 1.12499 6 1.12499H7.5C8.39511 1.12499 9.25355 1.48057 9.88649 2.11351C10.5194 2.74644 10.875 3.60489 10.875 4.49999C10.875 5.3951 10.5194 6.25354 9.88649 6.88648C9.25355 7.51942 8.39511 7.87499 7.5 7.87499H2.405L4.765 10.235C4.83523 10.3053 4.87467 10.4006 4.87467 10.5C4.87467 10.5994 4.83523 10.6947 4.765 10.765Z" fill="white"/>
</svg>
