<svg width="18" height="18" viewBox="0 0 18 18" fill="none" xmlns="http://www.w3.org/2000/svg">
<path d="M3.68475 1.9935C5.241 1.791 6.82725 1.6875 8.4375 1.6875C10.0478 1.6875 11.634 1.79175 13.1903 1.9935C14.6318 2.181 15.6585 3.38925 15.744 4.78875C15.4933 4.70522 15.2334 4.65209 14.97 4.6305C12.8686 4.45606 10.7564 4.45606 8.655 4.6305C6.8865 4.7775 5.625 6.273 5.625 7.956V11.1705C5.62429 11.7883 5.79433 12.3943 6.11634 12.9216C6.43835 13.4489 6.8998 13.877 7.44975 14.1585L5.46 16.1475C5.38134 16.2261 5.28115 16.2796 5.1721 16.3012C5.06305 16.3229 4.95003 16.3117 4.84731 16.2692C4.74459 16.2267 4.65677 16.1547 4.59496 16.0622C4.53314 15.9698 4.5001 15.8612 4.5 15.75V12.7275C4.2279 12.6986 3.95613 12.6666 3.68475 12.6315C2.17875 12.435 1.125 11.1248 1.125 9.6465V4.9785C1.125 3.501 2.17875 2.19 3.68475 1.99425V1.9935Z" fill="white"/>
<path d="M11.8125 5.625C10.7805 5.625 9.75825 5.66775 8.748 5.75175C7.593 5.84775 6.75 6.82725 6.75 7.95675V11.1705C6.75 12.3008 7.596 13.281 8.7525 13.3755C9.68475 13.452 10.6275 13.4933 11.5785 13.4993L13.665 15.585C13.7437 15.6636 13.8438 15.7171 13.9529 15.7387C14.0619 15.7604 14.175 15.7493 14.2777 15.7067C14.3804 15.6642 14.4682 15.5922 14.53 15.4998C14.5919 15.4073 14.6249 15.2987 14.625 15.1875V13.395L14.8725 13.3755C16.029 13.2818 16.875 12.3008 16.875 11.1705V7.956C16.875 6.82725 16.0312 5.84775 14.877 5.751C13.8577 5.66671 12.8353 5.62468 11.8125 5.625Z" fill="white"/>
</svg>
