<svg width="64" height="64" viewBox="0 0 64 64" fill="none" xmlns="http://www.w3.org/2000/svg">
<rect x="0.5" y="0.5" width="63" height="63" rx="13.5" fill="#51CEA9"/>
<g filter="url(#filter0_i_718_3)">
<path d="M22 11H31.9449C34.0257 11 35.812 11.3208 37.3032 11.9616C38.7944 12.6025 39.9415 13.551 40.7436 14.808C41.5457 16.0642 41.9468 17.6092 41.9468 19.4423C41.9468 20.8913 41.6957 22.1475 41.1952 23.2117C40.693 24.2759 39.9856 25.167 39.0703 25.8849C38.1679 26.6029 37.1027 27.1666 35.8746 27.5768L34.2575 28.4228H25.4781L25.4404 24.2496H32.0019C33.0671 24.2496 33.9503 24.0576 34.6522 23.6728C35.354 23.2888 35.8802 22.7563 36.2316 22.0769C36.5949 21.3975 36.777 20.6222 36.777 19.75C36.777 18.8137 36.6014 18.0064 36.25 17.327C35.8995 16.6345 35.3669 16.1028 34.6522 15.7311C33.9382 15.3594 33.0358 15.1731 31.9449 15.1731H27.1698V39H22V11ZM37.4532 39L31.1179 26.4617L36.5885 26.4421L43 38.7309V39H37.4532Z" fill="#072D22"/>
</g>
<path d="M31.6108 44.9578L32 45.4404L32.3892 44.9578C33.0921 44.0861 34.2522 43.5 35.5867 43.5C37.8041 43.5 39.5 45.0883 39.5 46.9293C39.5 47.189 39.4629 47.4439 39.3967 47.6941L39.3915 47.7135L39.388 47.7332C39.1092 49.2772 37.9838 50.9281 36.5036 52.3361C35.0822 53.6882 33.4001 54.7527 32 55.2418C30.5996 54.7527 28.9175 53.6882 27.4959 52.336C26.0157 50.928 24.8901 49.2769 24.6107 47.7325L24.6073 47.7139L24.6025 47.6957C24.5371 47.444 24.5 47.1884 24.5 46.9293C24.5 45.0878 26.1958 43.5 28.414 43.5C29.7477 43.5 30.9078 44.0861 31.6108 44.9578Z" fill="#00FFB4" stroke="black"/>
<rect x="0.5" y="0.5" width="63" height="63" rx="13.5" stroke="black"/>
<defs>
<filter id="filter0_i_718_3" x="22" y="11" width="21" height="32" filterUnits="userSpaceOnUse" color-interpolation-filters="sRGB">
<feFlood flood-opacity="0" result="BackgroundImageFix"/>
<feBlend mode="normal" in="SourceGraphic" in2="BackgroundImageFix" result="shape"/>
<feColorMatrix in="SourceAlpha" type="matrix" values="0 0 0 0 0 0 0 0 0 0 0 0 0 0 0 0 0 0 127 0" result="hardAlpha"/>
<feOffset dy="4"/>
<feGaussianBlur stdDeviation="22"/>
<feComposite in2="hardAlpha" operator="arithmetic" k2="-1" k3="1"/>
<feColorMatrix type="matrix" values="0 0 0 0 0 0 0 0 0 0 0 0 0 0 0 0 0 0 0.5 0"/>
<feBlend mode="normal" in2="shape" result="effect1_innerShadow_718_3"/>
</filter>
</defs>
</svg>
